<?xml version="1.0" encoding="UTF-8" standalone="no"?>
<svg
   xmlns:dc="http://purl.org/dc/elements/1.1/"
   xmlns:cc="http://creativecommons.org/ns#"
   xmlns:rdf="http://www.w3.org/1999/02/22-rdf-syntax-ns#"
   xmlns:svg="http://www.w3.org/2000/svg"
   xmlns="http://www.w3.org/2000/svg"
   xmlns:sodipodi="http://sodipodi.sourceforge.net/DTD/sodipodi-0.dtd"
   xmlns:inkscape="http://www.inkscape.org/namespaces/inkscape"
   width="300pt"
   height="300pt"
   viewBox="0 0 300 300"
   version="1.1"
   id="svg2"
   inkscape:version="0.91 r13725"
   sodipodi:docname="UXSocietyLogo.ai">
  <metadata
     id="metadata19">
    <rdf:RDF>
      <cc:Work
         rdf:about="">
        <dc:format>image/svg+xml</dc:format>
        <dc:type
           rdf:resource="http://purl.org/dc/dcmitype/StillImage" />
        <dc:title></dc:title>
      </cc:Work>
    </rdf:RDF>
  </metadata>
  <defs
     id="defs17" />
  <sodipodi:namedview
     pagecolor="#ffffff"
     bordercolor="#666666"
     borderopacity="1"
     objecttolerance="10"
     gridtolerance="10"
     guidetolerance="10"
     inkscape:pageopacity="0"
     inkscape:pageshadow="2"
     inkscape:window-width="1366"
     inkscape:window-height="700"
     id="namedview15"
     showgrid="false"
     inkscape:zoom="0.62933333"
     inkscape:cx="187.5"
     inkscape:cy="187.5"
     inkscape:window-x="0"
     inkscape:window-y="0"
     inkscape:window-maximized="1"
     inkscape:current-layer="svg2" />
  <g
     id="surface4462">
    <path
       style=" stroke:none;fill-rule:nonzero;fill:rgb(0%,55.686951%,83.137512%);fill-opacity:1;"
       d="M 231.496094 19.816406 L 68.503906 19.816406 C 38.488281 19.816406 14.167969 44.136719 14.167969 74.140625 L 14.167969 225.847656 C 14.167969 255.859375 38.488281 280.183594 68.503906 280.183594 L 231.496094 280.183594 C 261.507812 280.183594 285.832031 255.859375 285.832031 225.847656 L 285.832031 74.140625 C 285.832031 44.136719 261.507812 19.816406 231.496094 19.816406 "
       id="path5" />
    <path
       style=" stroke:none;fill-rule:nonzero;fill:rgb(100%,100%,100%);fill-opacity:1;"
       d="M 148.417969 143.226562 C 148.417969 143.226562 137.359375 139.648438 137.359375 133.261719 L 137.359375 115.984375 C 137.359375 78.785156 114.484375 71.625 98.453125 70.691406 C 96.734375 70.535156 95.488281 71.625 95.34375 73.335938 C 95.023438 78.007812 94.867188 81.742188 94.554688 86.570312 C 94.554688 87.816406 95.652344 89.214844 96.734375 89.527344 C 107.636719 92.332031 113.863281 100.734375 113.863281 115.984375 L 113.863281 130.148438 C 113.863281 142.449219 127.089844 150.070312 127.089844 150.070312 L 127.089844 150.695312 C 123.042969 152.402344 113.863281 158.167969 113.863281 169.378906 L 113.863281 184.007812 C 113.863281 199.265625 107.636719 207.667969 96.734375 210.472656 C 95.652344 210.773438 94.554688 212.183594 94.554688 213.433594 C 94.714844 218.875 94.714844 221.980469 95.34375 226.652344 C 95.488281 228.214844 96.890625 229.457031 98.453125 229.308594 C 114.484375 228.371094 137.359375 221.210938 137.359375 184.007812 L 137.359375 167.820312 C 137.359375 160.8125 144.367188 158.636719 148.109375 157.851562 C 149.347656 157.695312 150.441406 156.296875 150.441406 155.054688 L 150.441406 146.027344 C 150.441406 144.777344 149.347656 143.53125 148.417969 143.226562 "
       id="path7" />
    <path
       style=" stroke:none;fill-rule:nonzero;fill:rgb(100%,100%,100%);fill-opacity:1;"
       d="M 213.871094 210.472656 C 202.964844 207.664062 196.738281 199.265625 196.738281 184.003906 L 196.738281 169.375 C 196.738281 158.167969 187.550781 152.40625 183.511719 150.695312 L 183.511719 150.070312 C 183.511719 150.070312 196.738281 142.449219 196.738281 130.148438 L 196.738281 115.984375 C 196.738281 100.734375 202.964844 92.328125 213.871094 89.527344 C 214.953125 89.214844 216.042969 87.816406 216.042969 86.570312 C 215.726562 81.742188 215.570312 78.007812 215.265625 73.335938 C 215.105469 71.625 213.871094 70.535156 212.144531 70.691406 C 196.117188 71.625 173.242188 78.785156 173.242188 115.984375 L 173.242188 133.265625 C 173.242188 139.648438 162.183594 143.226562 162.183594 143.226562 C 161.25 143.53125 160.152344 144.777344 160.152344 146.027344 L 160.152344 155.054688 C 160.152344 156.292969 161.25 157.695312 162.492188 157.855469 C 166.234375 158.632812 173.242188 160.816406 173.242188 167.820312 L 173.242188 184.003906 C 173.242188 221.207031 196.117188 228.371094 212.144531 229.308594 C 213.710938 229.457031 215.105469 228.210938 215.265625 226.652344 C 215.886719 221.984375 215.886719 218.875 216.042969 213.433594 C 216.042969 212.183594 214.953125 210.777344 213.871094 210.472656 "
       id="path9" />
    <path
       style=" stroke:none;fill-rule:nonzero;fill:rgb(100%,100%,100%);fill-opacity:1;"
       d="M 97.988281 113.6875 C 97.988281 112.609375 97.015625 111.636719 95.9375 111.636719 L 82.648438 111.636719 C 81.449219 111.636719 80.585938 112.609375 80.585938 113.6875 L 80.585938 157.457031 C 80.585938 165.023438 74.863281 171.070312 67.078125 171.070312 C 59.410156 171.070312 53.78125 165.023438 53.78125 157.457031 L 53.78125 113.6875 C 53.78125 112.609375 52.921875 111.636719 51.738281 111.636719 L 38.441406 111.636719 C 37.363281 111.636719 36.390625 112.609375 36.390625 113.6875 L 36.390625 158.316406 C 36.390625 174.746094 50.109375 188.355469 67.078125 188.355469 C 84.15625 188.355469 97.988281 174.746094 97.988281 158.316406 Z M 97.988281 113.6875 "
       id="path11" />
    <path
       style=" stroke:none;fill-rule:nonzero;fill:rgb(100%,100%,100%);fill-opacity:1;"
       d="M 241.476562 141.777344 C 232.828125 138.273438 229.539062 135.207031 229.539062 131.148438 C 229.539062 128.191406 232.484375 125.5625 236.4375 125.5625 C 243.117188 125.5625 251.125 131.589844 252.109375 132.140625 C 253.089844 132.902344 255.066406 131.917969 255.839844 130.714844 L 261.429688 122.269531 C 261.863281 121.507812 262.082031 119.535156 260.765625 118.765625 C 257.480469 116.359375 248.710938 110.546875 237.3125 110.546875 C 220.4375 110.546875 212 121.507812 212 132.355469 C 212 145.5 223.835938 152.847656 233.257812 156.574219 C 240.710938 159.53125 244.542969 163.035156 244.542969 167.644531 C 244.542969 171.476562 241.367188 174.21875 236.988281 174.21875 C 229.757812 174.21875 221.867188 168.40625 221.429688 168.191406 C 220.65625 167.644531 218.574219 167.417969 217.695312 168.847656 L 212.542969 177.941406 C 211.671875 179.480469 212 179.917969 213.097656 181.011719 C 215.617188 183.539062 223.507812 189.449219 237.753906 189.449219 C 253.859375 189.449219 263.609375 178.054688 263.609375 166.769531 C 263.609375 151.863281 250.027344 145.175781 241.476562 141.777344 "
       id="path13" />
  </g>
</svg>
